<?xml version="1.0" encoding="UTF-8" standalone="no"?>
<!DOCTYPE svg PUBLIC "-//W3C//DTD SVG 1.1//EN"
 "http://www.w3.org/Graphics/SVG/1.1/DTD/svg11.dtd">
<!-- Generated by graphviz version 2.47.0 (20210316.0004)
 -->
<!-- Title: dependencies Pages: 1 -->
<svg width="1801pt" height="284pt"
 viewBox="0.00 0.00 1801.00 284.00" xmlns="http://www.w3.org/2000/svg" xmlns:xlink="http://www.w3.org/1999/xlink">
<g id="graph0" class="graph" transform="scale(1 1) rotate(0) translate(4 280)">
<title>dependencies</title>
<polygon fill="white" stroke="transparent" points="-4,4 -4,-280 1797,-280 1797,4 -4,4"/>
<text text-anchor="start" x="875.51" y="-42.4" font-family="Times-12" font-weight="bold" font-size="14.00">Legend</text>
<polygon fill="#ffffb3" stroke="transparent" points="662.5,-10 662.5,-30 682.5,-30 682.5,-10 662.5,-10"/>
<text text-anchor="start" x="686.13" y="-15.4" font-family="Times-12" font-size="14.00"> &#160;Declarations</text>
<polygon fill="#8dd3c7" stroke="transparent" points="775.5,-10 775.5,-30 795.5,-30 795.5,-10 775.5,-10"/>
<text text-anchor="start" x="799.23" y="-15.4" font-family="Times-12" font-size="14.00"> &#160;Module</text>
<polygon fill="#80b1d3" stroke="transparent" points="861.5,-10 861.5,-30 881.5,-30 881.5,-10 861.5,-10"/>
<text text-anchor="start" x="885.28" y="-15.4" font-family="Times-12" font-size="14.00"> &#160;Bootstrap</text>
<polygon fill="#fdb462" stroke="transparent" points="958.5,-10 958.5,-30 978.5,-30 978.5,-10 958.5,-10"/>
<text text-anchor="start" x="982.17" y="-15.4" font-family="Times-12" font-size="14.00"> &#160;Providers</text>
<polygon fill="#fb8072" stroke="transparent" points="1054.5,-10 1054.5,-30 1074.5,-30 1074.5,-10 1054.5,-10"/>
<text text-anchor="start" x="1078.23" y="-15.4" font-family="Times-12" font-size="14.00"> &#160;Exports</text>
<g id="clust1" class="cluster">
<title>cluster_UsersModule</title>
<polygon fill="none" stroke="black" stroke-dasharray="1,5" points="8,-70 8,-268 1785,-268 1785,-70 8,-70"/>
</g>
<g id="clust4" class="cluster">
<title>cluster_UsersModule_exports</title>
<polygon fill="none" stroke="black" points="872,-208 872,-260 982,-260 982,-208 872,-208"/>
</g>
<g id="clust6" class="cluster">
<title>cluster_UsersModule_providers</title>
<polygon fill="none" stroke="black" points="16,-78 16,-130 1777,-130 1777,-78 16,-78"/>
</g>
<!-- UsersService  -->
<g id="node1" class="node">
<title>UsersService </title>
<polygon fill="#fb8072" stroke="black" points="973.85,-252 880.15,-252 880.15,-216 973.85,-216 973.85,-252"/>
<text text-anchor="middle" x="927" y="-229.8" font-family="Times,serif" font-size="14.00">UsersService </text>
</g>
<!-- UsersModule -->
<g id="node2" class="node">
<title>UsersModule</title>
<polygon fill="#8dd3c7" stroke="black" points="972.92,-187 969.92,-191 948.92,-191 945.92,-187 881.08,-187 881.08,-151 972.92,-151 972.92,-187"/>
<text text-anchor="middle" x="927" y="-164.8" font-family="Times,serif" font-size="14.00">UsersModule</text>
</g>
<!-- UsersModule&#45;&gt;UsersService  -->
<g id="edge1" class="edge">
<title>UsersModule&#45;&gt;UsersService </title>
<path fill="none" stroke="black" stroke-dasharray="5,2" d="M927,-187.11C927,-187.11 927,-205.99 927,-205.99"/>
<polygon fill="black" stroke="black" points="923.5,-205.99 927,-215.99 930.5,-205.99 923.5,-205.99"/>
</g>
<!-- CreateFacebookUserProvider -->
<g id="node3" class="node">
<title>CreateFacebookUserProvider</title>
<ellipse fill="#fdb462" stroke="black" cx="1644" cy="-104" rx="125.02" ry="18"/>
<text text-anchor="middle" x="1644" y="-99.8" font-family="Times,serif" font-size="14.00">CreateFacebookUserProvider</text>
</g>
<!-- CreateFacebookUserProvider&#45;&gt;UsersModule -->
<g id="edge2" class="edge">
<title>CreateFacebookUserProvider&#45;&gt;UsersModule</title>
<path fill="none" stroke="black" d="M1644,-122.29C1644,-144.21 1644,-178 1644,-178 1644,-178 982.94,-178 982.94,-178"/>
<polygon fill="black" stroke="black" points="982.94,-174.5 972.94,-178 982.94,-181.5 982.94,-174.5"/>
</g>
<!-- CreateGoogleUserProvider -->
<g id="node4" class="node">
<title>CreateGoogleUserProvider</title>
<ellipse fill="#fdb462" stroke="black" cx="1385" cy="-104" rx="116.29" ry="18"/>
<text text-anchor="middle" x="1385" y="-99.8" font-family="Times,serif" font-size="14.00">CreateGoogleUserProvider</text>
</g>
<!-- CreateGoogleUserProvider&#45;&gt;UsersModule -->
<g id="edge3" class="edge">
<title>CreateGoogleUserProvider&#45;&gt;UsersModule</title>
<path fill="none" stroke="black" d="M1385,-122.11C1385,-141.34 1385,-169 1385,-169 1385,-169 983.01,-169 983.01,-169"/>
<polygon fill="black" stroke="black" points="983.01,-165.5 973.01,-169 983.01,-172.5 983.01,-165.5"/>
</g>
<!-- CreateUserProvider -->
<g id="node5" class="node">
<title>CreateUserProvider</title>
<ellipse fill="#fdb462" stroke="black" cx="1163" cy="-104" rx="87.94" ry="18"/>
<text text-anchor="middle" x="1163" y="-99.8" font-family="Times,serif" font-size="14.00">CreateUserProvider</text>
</g>
<!-- CreateUserProvider&#45;&gt;UsersModule -->
<g id="edge4" class="edge">
<title>CreateUserProvider&#45;&gt;UsersModule</title>
<path fill="none" stroke="black" d="M1163,-122.03C1163,-138.4 1163,-160 1163,-160 1163,-160 982.78,-160 982.78,-160"/>
<polygon fill="black" stroke="black" points="982.78,-156.5 972.78,-160 982.78,-163.5 982.78,-156.5"/>
</g>
<!-- FindOneUserByEmailProvider -->
<g id="node6" class="node">
<title>FindOneUserByEmailProvider</title>
<ellipse fill="#fdb462" stroke="black" cx="927" cy="-104" rx="130.8" ry="18"/>
<text text-anchor="middle" x="927" y="-99.8" font-family="Times,serif" font-size="14.00">FindOneUserByEmailProvider</text>
</g>
<!-- FindOneUserByEmailProvider&#45;&gt;UsersModule -->
<g id="edge5" class="edge">
<title>FindOneUserByEmailProvider&#45;&gt;UsersModule</title>
<path fill="none" stroke="black" d="M927,-122.11C927,-122.11 927,-140.99 927,-140.99"/>
<polygon fill="black" stroke="black" points="923.5,-140.99 927,-150.99 930.5,-140.99 923.5,-140.99"/>
</g>
<!-- FindOneUserByFacebookIdProvider -->
<g id="node7" class="node">
<title>FindOneUserByFacebookIdProvider</title>
<ellipse fill="#fdb462" stroke="black" cx="625" cy="-104" rx="153.34" ry="18"/>
<text text-anchor="middle" x="625" y="-99.8" font-family="Times,serif" font-size="14.00">FindOneUserByFacebookIdProvider</text>
</g>
<!-- FindOneUserByFacebookIdProvider&#45;&gt;UsersModule -->
<g id="edge6" class="edge">
<title>FindOneUserByFacebookIdProvider&#45;&gt;UsersModule</title>
<path fill="none" stroke="black" d="M625,-122.03C625,-138.4 625,-160 625,-160 625,-160 871.13,-160 871.13,-160"/>
<polygon fill="black" stroke="black" points="871.13,-163.5 881.13,-160 871.13,-156.5 871.13,-163.5"/>
</g>
<!-- FindOneUserByGoogleIdProvider -->
<g id="node8" class="node">
<title>FindOneUserByGoogleIdProvider</title>
<ellipse fill="#fdb462" stroke="black" cx="310" cy="-104" rx="144.11" ry="18"/>
<text text-anchor="middle" x="310" y="-99.8" font-family="Times,serif" font-size="14.00">FindOneUserByGoogleIdProvider</text>
</g>
<!-- FindOneUserByGoogleIdProvider&#45;&gt;UsersModule -->
<g id="edge7" class="edge">
<title>FindOneUserByGoogleIdProvider&#45;&gt;UsersModule</title>
<path fill="none" stroke="black" d="M310,-122.11C310,-141.34 310,-169 310,-169 310,-169 871.13,-169 871.13,-169"/>
<polygon fill="black" stroke="black" points="871.13,-172.5 881.13,-169 871.13,-165.5 871.13,-172.5"/>
</g>
<!-- UsersService -->
<g id="node9" class="node">
<title>UsersService</title>
<ellipse fill="#fdb462" stroke="black" cx="86" cy="-104" rx="61.95" ry="18"/>
<text text-anchor="middle" x="86" y="-99.8" font-family="Times,serif" font-size="14.00">UsersService</text>
</g>
<!-- UsersService&#45;&gt;UsersModule -->
<g id="edge8" class="edge">
<title>UsersService&#45;&gt;UsersModule</title>
<path fill="none" stroke="black" d="M86,-122.29C86,-144.21 86,-178 86,-178 86,-178 871.19,-178 871.19,-178"/>
<polygon fill="black" stroke="black" points="871.19,-181.5 881.19,-178 871.19,-174.5 871.19,-181.5"/>
</g>
</g>
</svg>
