<?xml version="1.0" encoding="UTF-8" standalone="no"?>
<!DOCTYPE svg PUBLIC "-//W3C//DTD SVG 1.1//EN"
 "http://www.w3.org/Graphics/SVG/1.1/DTD/svg11.dtd">
<!-- Generated by graphviz version 2.47.0 (20210316.0004)
 -->
<!-- Title: dependencies Pages: 1 -->
<svg width="1346pt" height="284pt"
 viewBox="0.00 0.00 1346.00 284.00" xmlns="http://www.w3.org/2000/svg" xmlns:xlink="http://www.w3.org/1999/xlink">
<g id="graph0" class="graph" transform="scale(1 1) rotate(0) translate(4 280)">
<title>dependencies</title>
<polygon fill="white" stroke="transparent" points="-4,4 -4,-280 1342,-280 1342,4 -4,4"/>
<text text-anchor="start" x="648.01" y="-42.4" font-family="Times-12" font-weight="bold" font-size="14.00">Legend</text>
<polygon fill="#ffffb3" stroke="transparent" points="435,-10 435,-30 455,-30 455,-10 435,-10"/>
<text text-anchor="start" x="458.63" y="-15.4" font-family="Times-12" font-size="14.00"> &#160;Declarations</text>
<polygon fill="#8dd3c7" stroke="transparent" points="548,-10 548,-30 568,-30 568,-10 548,-10"/>
<text text-anchor="start" x="571.73" y="-15.4" font-family="Times-12" font-size="14.00"> &#160;Module</text>
<polygon fill="#80b1d3" stroke="transparent" points="634,-10 634,-30 654,-30 654,-10 634,-10"/>
<text text-anchor="start" x="657.78" y="-15.4" font-family="Times-12" font-size="14.00"> &#160;Bootstrap</text>
<polygon fill="#fdb462" stroke="transparent" points="731,-10 731,-30 751,-30 751,-10 731,-10"/>
<text text-anchor="start" x="754.67" y="-15.4" font-family="Times-12" font-size="14.00"> &#160;Providers</text>
<polygon fill="#fb8072" stroke="transparent" points="827,-10 827,-30 847,-30 847,-10 827,-10"/>
<text text-anchor="start" x="850.73" y="-15.4" font-family="Times-12" font-size="14.00"> &#160;Exports</text>
<g id="clust1" class="cluster">
<title>cluster_AuthModule</title>
<polygon fill="none" stroke="black" stroke-dasharray="1,5" points="8,-70 8,-268 1330,-268 1330,-70 8,-70"/>
</g>
<g id="clust4" class="cluster">
<title>cluster_AuthModule_exports</title>
<polygon fill="none" stroke="black" points="532,-208 532,-260 770,-260 770,-208 532,-208"/>
</g>
<g id="clust6" class="cluster">
<title>cluster_AuthModule_providers</title>
<polygon fill="none" stroke="black" points="16,-78 16,-130 1322,-130 1322,-78 16,-78"/>
</g>
<!-- AuthService  -->
<g id="node1" class="node">
<title>AuthService </title>
<polygon fill="#fb8072" stroke="black" points="761.98,-252 672.02,-252 672.02,-216 761.98,-216 761.98,-252"/>
<text text-anchor="middle" x="717" y="-229.8" font-family="Times,serif" font-size="14.00">AuthService </text>
</g>
<!-- HashingProvider  -->
<g id="node2" class="node">
<title>HashingProvider </title>
<polygon fill="#fb8072" stroke="black" points="654.37,-252 539.63,-252 539.63,-216 654.37,-216 654.37,-252"/>
<text text-anchor="middle" x="597" y="-229.8" font-family="Times,serif" font-size="14.00">HashingProvider </text>
</g>
<!-- AuthModule -->
<g id="node3" class="node">
<title>AuthModule</title>
<polygon fill="#8dd3c7" stroke="black" points="700.55,-187 697.55,-191 676.55,-191 673.55,-187 613.45,-187 613.45,-151 700.55,-151 700.55,-187"/>
<text text-anchor="middle" x="657" y="-164.8" font-family="Times,serif" font-size="14.00">AuthModule</text>
</g>
<!-- AuthModule&#45;&gt;AuthService  -->
<g id="edge1" class="edge">
<title>AuthModule&#45;&gt;AuthService </title>
<path fill="none" stroke="black" stroke-dasharray="5,2" d="M686.52,-187.11C686.52,-187.11 686.52,-205.99 686.52,-205.99"/>
<polygon fill="black" stroke="black" points="683.02,-205.99 686.52,-215.99 690.02,-205.99 683.02,-205.99"/>
</g>
<!-- AuthModule&#45;&gt;HashingProvider  -->
<g id="edge2" class="edge">
<title>AuthModule&#45;&gt;HashingProvider </title>
<path fill="none" stroke="black" stroke-dasharray="5,2" d="M633.7,-187.11C633.7,-187.11 633.7,-205.99 633.7,-205.99"/>
<polygon fill="black" stroke="black" points="630.2,-205.99 633.7,-215.99 637.2,-205.99 630.2,-205.99"/>
</g>
<!-- AuthService -->
<g id="node4" class="node">
<title>AuthService</title>
<ellipse fill="#fdb462" stroke="black" cx="1255" cy="-104" rx="59.11" ry="18"/>
<text text-anchor="middle" x="1255" y="-99.8" font-family="Times,serif" font-size="14.00">AuthService</text>
</g>
<!-- AuthService&#45;&gt;AuthModule -->
<g id="edge3" class="edge">
<title>AuthService&#45;&gt;AuthModule</title>
<path fill="none" stroke="black" d="M1255,-122.28C1255,-143.32 1255,-175 1255,-175 1255,-175 710.97,-175 710.97,-175"/>
<polygon fill="black" stroke="black" points="710.97,-171.5 700.97,-175 710.97,-178.5 710.97,-171.5"/>
</g>
<!-- FacebookAuthenticationService -->
<g id="node5" class="node">
<title>FacebookAuthenticationService</title>
<ellipse fill="#fdb462" stroke="black" cx="1043" cy="-104" rx="134.85" ry="18"/>
<text text-anchor="middle" x="1043" y="-99.8" font-family="Times,serif" font-size="14.00">FacebookAuthenticationService</text>
</g>
<!-- FacebookAuthenticationService&#45;&gt;AuthModule -->
<g id="edge4" class="edge">
<title>FacebookAuthenticationService&#45;&gt;AuthModule</title>
<path fill="none" stroke="black" d="M1043,-122.02C1043,-139.37 1043,-163 1043,-163 1043,-163 710.9,-163 710.9,-163"/>
<polygon fill="black" stroke="black" points="710.9,-159.5 700.9,-163 710.9,-166.5 710.9,-159.5"/>
</g>
<!-- GenerateTokensProvider -->
<g id="node6" class="node">
<title>GenerateTokensProvider</title>
<ellipse fill="#fdb462" stroke="black" cx="783" cy="-104" rx="107.63" ry="18"/>
<text text-anchor="middle" x="783" y="-99.8" font-family="Times,serif" font-size="14.00">GenerateTokensProvider</text>
</g>
<!-- GenerateTokensProvider&#45;&gt;AuthModule -->
<g id="edge5" class="edge">
<title>GenerateTokensProvider&#45;&gt;AuthModule</title>
<path fill="none" stroke="black" d="M688.11,-112.5C688.11,-112.5 688.11,-140.91 688.11,-140.91"/>
<polygon fill="black" stroke="black" points="684.61,-140.91 688.11,-150.91 691.61,-140.91 684.61,-140.91"/>
</g>
<!-- GoogleAuthenticationService -->
<g id="node7" class="node">
<title>GoogleAuthenticationService</title>
<ellipse fill="#fdb462" stroke="black" cx="532" cy="-104" rx="125.62" ry="18"/>
<text text-anchor="middle" x="532" y="-99.8" font-family="Times,serif" font-size="14.00">GoogleAuthenticationService</text>
</g>
<!-- GoogleAuthenticationService&#45;&gt;AuthModule -->
<g id="edge6" class="edge">
<title>GoogleAuthenticationService&#45;&gt;AuthModule</title>
<path fill="none" stroke="black" d="M635.52,-114.44C635.52,-114.44 635.52,-140.97 635.52,-140.97"/>
<polygon fill="black" stroke="black" points="632.02,-140.97 635.52,-150.97 639.02,-140.97 632.02,-140.97"/>
</g>
<!-- RefreshTokensProvider -->
<g id="node8" class="node">
<title>RefreshTokensProvider</title>
<ellipse fill="#fdb462" stroke="black" cx="285" cy="-104" rx="102.99" ry="18"/>
<text text-anchor="middle" x="285" y="-99.8" font-family="Times,serif" font-size="14.00">RefreshTokensProvider</text>
</g>
<!-- RefreshTokensProvider&#45;&gt;AuthModule -->
<g id="edge7" class="edge">
<title>RefreshTokensProvider&#45;&gt;AuthModule</title>
<path fill="none" stroke="black" d="M285,-122.02C285,-139.37 285,-163 285,-163 285,-163 603.23,-163 603.23,-163"/>
<polygon fill="black" stroke="black" points="603.23,-166.5 613.23,-163 603.23,-159.5 603.23,-166.5"/>
</g>
<!-- SignInProvider -->
<g id="node9" class="node">
<title>SignInProvider</title>
<ellipse fill="#fdb462" stroke="black" cx="94" cy="-104" rx="70.08" ry="18"/>
<text text-anchor="middle" x="94" y="-99.8" font-family="Times,serif" font-size="14.00">SignInProvider</text>
</g>
<!-- SignInProvider&#45;&gt;AuthModule -->
<g id="edge8" class="edge">
<title>SignInProvider&#45;&gt;AuthModule</title>
<path fill="none" stroke="black" d="M94,-122.28C94,-143.32 94,-175 94,-175 94,-175 603.29,-175 603.29,-175"/>
<polygon fill="black" stroke="black" points="603.29,-178.5 613.29,-175 603.29,-171.5 603.29,-178.5"/>
</g>
</g>
</svg>
