<?xml version="1.0" encoding="UTF-8" standalone="no"?>
<!DOCTYPE svg PUBLIC "-//W3C//DTD SVG 1.1//EN"
 "http://www.w3.org/Graphics/SVG/1.1/DTD/svg11.dtd">
<!-- Generated by graphviz version 2.47.0 (20210316.0004)
 -->
<!-- Title: dependencies Pages: 1 -->
<svg width="504pt" height="211pt"
 viewBox="0.00 0.00 504.00 211.00" xmlns="http://www.w3.org/2000/svg" xmlns:xlink="http://www.w3.org/1999/xlink">
<g id="graph0" class="graph" transform="scale(1 1) rotate(0) translate(4 207)">
<title>dependencies</title>
<polygon fill="white" stroke="transparent" points="-4,4 -4,-207 500,-207 500,4 -4,4"/>
<text text-anchor="start" x="227.01" y="-42.4" font-family="Times-12" font-weight="bold" font-size="14.00">Legend</text>
<polygon fill="#ffffb3" stroke="transparent" points="14,-10 14,-30 34,-30 34,-10 14,-10"/>
<text text-anchor="start" x="37.63" y="-15.4" font-family="Times-12" font-size="14.00"> &#160;Declarations</text>
<polygon fill="#8dd3c7" stroke="transparent" points="127,-10 127,-30 147,-30 147,-10 127,-10"/>
<text text-anchor="start" x="150.73" y="-15.4" font-family="Times-12" font-size="14.00"> &#160;Module</text>
<polygon fill="#80b1d3" stroke="transparent" points="213,-10 213,-30 233,-30 233,-10 213,-10"/>
<text text-anchor="start" x="236.78" y="-15.4" font-family="Times-12" font-size="14.00"> &#160;Bootstrap</text>
<polygon fill="#fdb462" stroke="transparent" points="310,-10 310,-30 330,-30 330,-10 310,-10"/>
<text text-anchor="start" x="333.67" y="-15.4" font-family="Times-12" font-size="14.00"> &#160;Providers</text>
<polygon fill="#fb8072" stroke="transparent" points="406,-10 406,-30 426,-30 426,-10 406,-10"/>
<text text-anchor="start" x="429.73" y="-15.4" font-family="Times-12" font-size="14.00"> &#160;Exports</text>
<g id="clust1" class="cluster">
<title>cluster_SocialAccountsModule</title>
<polygon fill="none" stroke="black" stroke-dasharray="1,5" points="73,-70 73,-195 423,-195 423,-70 73,-70"/>
</g>
<g id="clust3" class="cluster">
<title>cluster_SocialAccountsModule_imports</title>
<polygon fill="none" stroke="black" points="307,-78 307,-130 415,-130 415,-78 307,-78"/>
</g>
<g id="clust6" class="cluster">
<title>cluster_SocialAccountsModule_providers</title>
<polygon fill="none" stroke="black" points="81,-78 81,-130 299,-130 299,-78 81,-78"/>
</g>
<!-- UsersModule -->
<g id="node1" class="node">
<title>UsersModule</title>
<polygon fill="#8dd3c7" stroke="black" points="406.92,-122 403.92,-126 382.92,-126 379.92,-122 315.08,-122 315.08,-86 406.92,-86 406.92,-122"/>
<text text-anchor="middle" x="361" y="-99.8" font-family="Times,serif" font-size="14.00">UsersModule</text>
</g>
<!-- SocialAccountsModule -->
<g id="node2" class="node">
<title>SocialAccountsModule</title>
<polygon fill="#8dd3c7" stroke="black" points="338.91,-187 335.91,-191 314.91,-191 311.91,-187 191.09,-187 191.09,-151 338.91,-151 338.91,-187"/>
<text text-anchor="middle" x="265" y="-164.8" font-family="Times,serif" font-size="14.00">SocialAccountsModule</text>
</g>
<!-- UsersModule&#45;&gt;SocialAccountsModule -->
<g id="edge1" class="edge">
<title>UsersModule&#45;&gt;SocialAccountsModule</title>
<path fill="none" stroke="black" d="M327,-122.11C327,-122.11 327,-140.99 327,-140.99"/>
<polygon fill="black" stroke="black" points="323.5,-140.99 327,-150.99 330.5,-140.99 323.5,-140.99"/>
</g>
<!-- SocialAccountsService -->
<g id="node3" class="node">
<title>SocialAccountsService</title>
<ellipse fill="#fdb462" stroke="black" cx="190" cy="-104" rx="100.7" ry="18"/>
<text text-anchor="middle" x="190" y="-99.8" font-family="Times,serif" font-size="14.00">SocialAccountsService</text>
</g>
<!-- SocialAccountsService&#45;&gt;SocialAccountsModule -->
<g id="edge2" class="edge">
<title>SocialAccountsService&#45;&gt;SocialAccountsModule</title>
<path fill="none" stroke="black" d="M240.95,-119.73C240.95,-119.73 240.95,-140.65 240.95,-140.65"/>
<polygon fill="black" stroke="black" points="237.45,-140.65 240.95,-150.65 244.45,-140.65 237.45,-140.65"/>
</g>
</g>
</svg>
