<?xml version="1.0" encoding="UTF-8" standalone="no"?>
<!DOCTYPE svg PUBLIC "-//W3C//DTD SVG 1.1//EN"
 "http://www.w3.org/Graphics/SVG/1.1/DTD/svg11.dtd">
<!-- Generated by graphviz version 2.47.0 (20210316.0004)
 -->
<!-- Title: dependencies Pages: 1 -->
<svg width="1110pt" height="298pt"
 viewBox="0.00 0.00 1110.00 298.00" xmlns="http://www.w3.org/2000/svg" xmlns:xlink="http://www.w3.org/1999/xlink">
<g id="graph0" class="graph" transform="scale(1 1) rotate(0) translate(4 294)">
<title>dependencies</title>
<polygon fill="white" stroke="transparent" points="-4,4 -4,-294 1106,-294 1106,4 -4,4"/>
<text text-anchor="start" x="530.01" y="-42.4" font-family="Times-12" font-weight="bold" font-size="14.00">Legend</text>
<polygon fill="#ffffb3" stroke="transparent" points="317,-10 317,-30 337,-30 337,-10 317,-10"/>
<text text-anchor="start" x="340.63" y="-15.4" font-family="Times-12" font-size="14.00"> &#160;Declarations</text>
<polygon fill="#8dd3c7" stroke="transparent" points="430,-10 430,-30 450,-30 450,-10 430,-10"/>
<text text-anchor="start" x="453.73" y="-15.4" font-family="Times-12" font-size="14.00"> &#160;Module</text>
<polygon fill="#80b1d3" stroke="transparent" points="516,-10 516,-30 536,-30 536,-10 516,-10"/>
<text text-anchor="start" x="539.78" y="-15.4" font-family="Times-12" font-size="14.00"> &#160;Bootstrap</text>
<polygon fill="#fdb462" stroke="transparent" points="613,-10 613,-30 633,-30 633,-10 613,-10"/>
<text text-anchor="start" x="636.67" y="-15.4" font-family="Times-12" font-size="14.00"> &#160;Providers</text>
<polygon fill="#fb8072" stroke="transparent" points="709,-10 709,-30 729,-30 729,-10 709,-10"/>
<text text-anchor="start" x="732.73" y="-15.4" font-family="Times-12" font-size="14.00"> &#160;Exports</text>
<g id="clust1" class="cluster">
<title>cluster_AppModule</title>
<polygon fill="none" stroke="black" stroke-dasharray="1,5" points="8,-146 8,-274 540,-274 540,-146 8,-146"/>
</g>
<g id="clust3" class="cluster">
<title>cluster_AppModule_imports</title>
<polygon fill="none" stroke="black" points="154,-154 154,-206 532,-206 532,-154 154,-154"/>
</g>
<g id="clust6" class="cluster">
<title>cluster_AppModule_providers</title>
<polygon fill="none" stroke="black" points="16,-154 16,-206 146,-206 146,-154 16,-154"/>
</g>
<g id="clust7" class="cluster">
<title>cluster_AuthModule</title>
<polygon fill="none" stroke="black" stroke-dasharray="1,5" points="548,-214 548,-282 812,-282 812,-214 548,-214"/>
</g>
<g id="clust10" class="cluster">
<title>cluster_AuthModule_exports</title>
<polygon fill="none" stroke="black" points="698,-222 698,-274 804,-274 804,-222 698,-222"/>
</g>
<g id="clust12" class="cluster">
<title>cluster_AuthModule_providers</title>
<polygon fill="none" stroke="black" points="556,-222 556,-274 690,-274 690,-222 556,-222"/>
</g>
<g id="clust13" class="cluster">
<title>cluster_SocialAccountsModule</title>
<polygon fill="none" stroke="black" stroke-dasharray="1,5" points="119,-70 119,-138 353,-138 353,-70 119,-70"/>
</g>
<g id="clust18" class="cluster">
<title>cluster_SocialAccountsModule_providers</title>
<polygon fill="none" stroke="black" points="127,-78 127,-130 345,-130 345,-78 127,-78"/>
</g>
<g id="clust19" class="cluster">
<title>cluster_UsersModule</title>
<polygon fill="none" stroke="black" stroke-dasharray="1,5" points="820,-214 820,-282 1094,-282 1094,-214 820,-214"/>
</g>
<g id="clust22" class="cluster">
<title>cluster_UsersModule_exports</title>
<polygon fill="none" stroke="black" points="976,-222 976,-274 1086,-274 1086,-222 976,-222"/>
</g>
<g id="clust24" class="cluster">
<title>cluster_UsersModule_providers</title>
<polygon fill="none" stroke="black" points="828,-222 828,-274 968,-274 968,-222 828,-222"/>
</g>
<!-- AuthModule -->
<g id="node1" class="node">
<title>AuthModule</title>
<polygon fill="#8dd3c7" stroke="black" points="414.55,-198 411.55,-202 390.55,-202 387.55,-198 327.45,-198 327.45,-162 414.55,-162 414.55,-198"/>
<text text-anchor="middle" x="371" y="-175.8" font-family="Times,serif" font-size="14.00">AuthModule</text>
</g>
<!-- AppModule -->
<g id="node4" class="node">
<title>AppModule</title>
<polygon fill="#8dd3c7" stroke="black" points="344.66,-266 341.66,-270 320.66,-270 317.66,-266 261.34,-266 261.34,-230 344.66,-230 344.66,-266"/>
<text text-anchor="middle" x="303" y="-243.8" font-family="Times,serif" font-size="14.00">AppModule</text>
</g>
<!-- AuthModule&#45;&gt;AppModule -->
<g id="edge1" class="edge">
<title>AuthModule&#45;&gt;AppModule</title>
<path fill="none" stroke="black" d="M336.03,-198.22C336.03,-198.22 336.03,-219.73 336.03,-219.73"/>
<polygon fill="black" stroke="black" points="332.53,-219.73 336.03,-229.73 339.53,-219.73 332.53,-219.73"/>
</g>
<!-- AuthService  -->
<g id="node6" class="node">
<title>AuthService </title>
<polygon fill="#fb8072" stroke="black" points="795.98,-266 706.02,-266 706.02,-230 795.98,-230 795.98,-266"/>
<text text-anchor="middle" x="751" y="-243.8" font-family="Times,serif" font-size="14.00">AuthService </text>
</g>
<!-- AuthModule&#45;&gt;AuthService  -->
<g id="edge5" class="edge">
<title>AuthModule&#45;&gt;AuthService </title>
<path fill="none" stroke="black" stroke-dasharray="5,2" d="M368.14,-198.19C368.14,-206.28 368.14,-214 368.14,-214 368.14,-214 751,-214 751,-214 751,-214 751,-219.81 751,-219.81"/>
<polygon fill="black" stroke="black" points="747.5,-219.81 751,-229.81 754.5,-219.81 747.5,-219.81"/>
</g>
<!-- SocialAccountsModule -->
<g id="node2" class="node">
<title>SocialAccountsModule</title>
<polygon fill="#8dd3c7" stroke="black" points="309.91,-198 306.91,-202 285.91,-202 282.91,-198 162.09,-198 162.09,-162 309.91,-162 309.91,-198"/>
<text text-anchor="middle" x="236" y="-175.8" font-family="Times,serif" font-size="14.00">SocialAccountsModule</text>
</g>
<!-- SocialAccountsModule&#45;&gt;AppModule -->
<g id="edge2" class="edge">
<title>SocialAccountsModule&#45;&gt;AppModule</title>
<path fill="none" stroke="black" d="M285.44,-198.22C285.44,-198.22 285.44,-219.73 285.44,-219.73"/>
<polygon fill="black" stroke="black" points="281.94,-219.73 285.44,-229.73 288.94,-219.73 281.94,-219.73"/>
</g>
<!-- UsersModule -->
<g id="node3" class="node">
<title>UsersModule</title>
<polygon fill="#8dd3c7" stroke="black" points="523.92,-198 520.92,-202 499.92,-202 496.92,-198 432.08,-198 432.08,-162 523.92,-162 523.92,-198"/>
<text text-anchor="middle" x="478" y="-175.8" font-family="Times,serif" font-size="14.00">UsersModule</text>
</g>
<!-- UsersModule&#45;&gt;AppModule -->
<g id="edge3" class="edge">
<title>UsersModule&#45;&gt;AppModule</title>
<path fill="none" stroke="black" d="M478,-198.27C478,-216.56 478,-242 478,-242 478,-242 354.92,-242 354.92,-242"/>
<polygon fill="black" stroke="black" points="354.92,-238.5 344.92,-242 354.92,-245.5 354.92,-238.5"/>
</g>
<!-- UsersService  -->
<g id="node9" class="node">
<title>UsersService </title>
<polygon fill="#fb8072" stroke="black" points="1077.85,-266 984.15,-266 984.15,-230 1077.85,-230 1077.85,-266"/>
<text text-anchor="middle" x="1031" y="-243.8" font-family="Times,serif" font-size="14.00">UsersService </text>
</g>
<!-- UsersModule&#45;&gt;UsersService  -->
<g id="edge8" class="edge">
<title>UsersModule&#45;&gt;UsersService </title>
<path fill="none" stroke="black" stroke-dasharray="5,2" d="M523.72,-174C656.22,-174 1031,-174 1031,-174 1031,-174 1031,-219.71 1031,-219.71"/>
<polygon fill="black" stroke="black" points="1027.5,-219.71 1031,-229.71 1034.5,-219.71 1027.5,-219.71"/>
</g>
<!-- AppService -->
<g id="node5" class="node">
<title>AppService</title>
<ellipse fill="#fdb462" stroke="black" cx="81" cy="-180" rx="56.74" ry="18"/>
<text text-anchor="middle" x="81" y="-175.8" font-family="Times,serif" font-size="14.00">AppService</text>
</g>
<!-- AppService&#45;&gt;AppModule -->
<g id="edge4" class="edge">
<title>AppService&#45;&gt;AppModule</title>
<path fill="none" stroke="black" d="M81,-198.22C81,-218.37 81,-248 81,-248 81,-248 251.24,-248 251.24,-248"/>
<polygon fill="black" stroke="black" points="251.24,-251.5 261.24,-248 251.24,-244.5 251.24,-251.5"/>
</g>
<!-- AuthService -->
<g id="node7" class="node">
<title>AuthService</title>
<ellipse fill="#fdb462" stroke="black" cx="623" cy="-248" rx="59.11" ry="18"/>
<text text-anchor="middle" x="623" y="-243.8" font-family="Times,serif" font-size="14.00">AuthService</text>
</g>
<!-- AuthService&#45;&gt;AuthModule -->
<g id="edge6" class="edge">
<title>AuthService&#45;&gt;AuthModule</title>
<path fill="none" stroke="black" d="M566.95,-254C498.42,-254 391.46,-254 391.46,-254 391.46,-254 391.46,-208.29 391.46,-208.29"/>
<polygon fill="black" stroke="black" points="394.96,-208.29 391.46,-198.29 387.96,-208.29 394.96,-208.29"/>
</g>
<!-- SocialAccountsService -->
<g id="node8" class="node">
<title>SocialAccountsService</title>
<ellipse fill="#fdb462" stroke="black" cx="236" cy="-104" rx="100.7" ry="18"/>
<text text-anchor="middle" x="236" y="-99.8" font-family="Times,serif" font-size="14.00">SocialAccountsService</text>
</g>
<!-- SocialAccountsService&#45;&gt;SocialAccountsModule -->
<g id="edge7" class="edge">
<title>SocialAccountsService&#45;&gt;SocialAccountsModule</title>
<path fill="none" stroke="black" d="M236,-122.01C236,-122.01 236,-151.85 236,-151.85"/>
<polygon fill="black" stroke="black" points="232.5,-151.85 236,-161.85 239.5,-151.85 232.5,-151.85"/>
</g>
<!-- UsersService -->
<g id="node10" class="node">
<title>UsersService</title>
<ellipse fill="#fdb462" stroke="black" cx="898" cy="-248" rx="61.95" ry="18"/>
<text text-anchor="middle" x="898" y="-243.8" font-family="Times,serif" font-size="14.00">UsersService</text>
</g>
<!-- UsersService&#45;&gt;UsersModule -->
<g id="edge9" class="edge">
<title>UsersService&#45;&gt;UsersModule</title>
<path fill="none" stroke="black" d="M898,-229.73C898,-211.44 898,-186 898,-186 898,-186 533.75,-186 533.75,-186"/>
<polygon fill="black" stroke="black" points="533.75,-182.5 523.75,-186 533.75,-189.5 533.75,-182.5"/>
</g>
</g>
</svg>
